<?xml version="1.0" encoding="utf-8"?>
<!-- Generator: Adobe Illustrator 24.0.0, SVG Export Plug-In . SVG Version: 6.00 Build 0)  -->
<svg version="1.1" xmlns="http://www.w3.org/2000/svg" xmlns:xlink="http://www.w3.org/1999/xlink" x="0px" y="0px"
	 viewBox="0 0 31.8 30.4" style="enable-background:new 0 0 31.8 30.4;" xml:space="preserve">
<style type="text/css">
	.st0{fill:#FFFFFF;}
	.st1{opacity:0.8;clip-path:url(#SVGID_4_);}
	.st2{opacity:0.85;fill:url(#SVGID_5_);}
	.st3{clip-path:url(#SVGID_4_);}
	.st4{fill:url(#SVGID_6_);}
	.st5{fill:url(#SVGID_7_);}
	.st6{fill:#EDEDED;}
	.st7{fill:url(#SVGID_8_);}
	.st8{fill:url(#SVGID_9_);}
	.st9{clip-path:url(#SVGID_4_);fill:url(#SVGID_10_);}
	.st10{clip-path:url(#SVGID_4_);fill:#93FFCE;}
	.st11{clip-path:url(#SVGID_12_);}
	.st12{clip-path:url(#SVGID_16_);}
	.st13{fill:url(#SVGID_17_);}
	.st14{fill:url(#SVGID_18_);}
	.st15{fill:url(#SVGID_19_);}
	.st16{fill:url(#SVGID_20_);}
	.st17{fill:url(#SVGID_21_);}
	.st18{fill:url(#SVGID_22_);}
</style>
<g id="BACKGROUND">
</g>
<g id="PHOTOS_2">
</g>
<g id="OBJECTS_2">
	<g>
		<g>
			<g>
				<path class="st0" d="M22,30.4H9.8C4.4,30.4,0,26,0,20.6V9.8C0,4.4,4.4,0,9.8,0H22c5.4,0,9.8,4.4,9.8,9.8v10.8
					C31.8,26,27.4,30.4,22,30.4z M9.8,2.2c-4.2,0-7.6,3.4-7.6,7.6v10.8c0,4.2,3.4,7.6,7.6,7.6H22c4.2,0,7.6-3.4,7.6-7.6V9.8
					c0-4.2-3.4-7.6-7.6-7.6H9.8z"/>
			</g>
			<g>
				<path class="st0" d="M15.9,23.9c-4.8,0-8.7-3.9-8.7-8.7c0-4.8,3.9-8.7,8.7-8.7c4.8,0,8.7,3.9,8.7,8.7
					C24.7,20,20.7,23.9,15.9,23.9z M15.9,8.6c-3.6,0-6.6,2.9-6.6,6.6c0,3.6,2.9,6.6,6.6,6.6c3.6,0,6.6-2.9,6.6-6.6
					C22.5,11.6,19.5,8.6,15.9,8.6z"/>
			</g>
			<g>
				<path class="st0" d="M26.3,6.7c0,1-0.8,1.8-1.8,1.8c-1,0-1.8-0.8-1.8-1.8c0-1,0.8-1.8,1.8-1.8C25.5,4.9,26.3,5.7,26.3,6.7z"/>
			</g>
		</g>
	</g>
</g>
<g id="PHOTOS_1">
</g>
<g id="OBJECTS_1_1_">
</g>
<g id="TEXTS">
</g>
</svg>
